<svg width="16" height="16" viewBox="0 0 16 16" fill="none" xmlns="http://www.w3.org/2000/svg">
<path fill-rule="evenodd" clip-rule="evenodd" d="M4.65107 5.35986C3.6437 6.14251 2.83749 7.08729 2.35787 7.7134L2.35516 7.71694L2.35514 7.71693C2.29219 7.79798 2.25802 7.89769 2.25802 8.00032C2.25802 8.10295 2.29219 8.20266 2.35514 8.28372L2.3577 8.28701L2.35769 8.28701C2.88937 8.98045 3.81563 10.0576 4.96792 10.8757C5.26814 11.0889 5.33871 11.5051 5.12555 11.8053C4.91239 12.1055 4.49622 12.1761 4.19601 11.9629C2.88918 11.035 1.86927 9.84113 1.30072 9.09979C1.05697 8.78514 0.924683 8.39838 0.924683 8.00032C0.924683 7.60232 1.05693 7.21563 1.30061 6.901C1.8165 6.22773 2.70145 5.18612 3.83303 4.30696C4.958 3.43294 6.39493 2.66666 7.99997 2.66666C9.44152 2.66666 10.7454 3.28471 11.8064 4.03941C12.1064 4.25283 12.1766 4.66906 11.9632 4.96909C11.7498 5.26911 11.3336 5.33932 11.0335 5.1259C10.0945 4.45793 9.05975 3.99999 7.99997 3.99999C6.817 3.99999 5.66594 4.57137 4.65107 5.35986Z" fill="#C0C0C0"/>
<path fill-rule="evenodd" clip-rule="evenodd" d="M6.979 5.52794C7.30451 5.39393 7.65334 5.3257 8.00535 5.32717C8.35737 5.32865 8.70561 5.3998 9.02999 5.53654C9.35437 5.67327 9.64846 5.87288 9.89531 6.12384C10.1535 6.38633 10.15 6.80843 9.88752 7.06662C9.62503 7.32481 9.20294 7.32132 8.94475 7.05883C8.82132 6.93335 8.67427 6.83354 8.51208 6.76518C8.3499 6.69681 8.17577 6.66123 7.99977 6.66049C7.82376 6.65976 7.64935 6.69387 7.48659 6.76088C7.32383 6.82789 7.17596 6.92645 7.05148 7.0509C6.92701 7.17534 6.82841 7.32319 6.76137 7.48593C6.69432 7.64867 6.66016 7.82308 6.66086 7.99909C6.66155 8.17509 6.69709 8.34922 6.76542 8.51143C6.83375 8.67363 6.93352 8.82071 7.05897 8.94416C7.3214 9.20241 7.32479 9.62451 7.06653 9.88694C6.80828 10.1494 6.38619 10.1528 6.12376 9.8945C5.87285 9.6476 5.67332 9.35345 5.53666 9.02904C5.4 8.70463 5.32893 8.35637 5.32754 8.00436C5.32614 7.65234 5.39446 7.30353 5.52855 6.97805C5.66264 6.65257 5.85984 6.35686 6.10879 6.10798C6.35773 5.85909 6.65349 5.66196 6.979 5.52794Z" fill="#C0C0C0"/>
<path fill-rule="evenodd" clip-rule="evenodd" d="M13.8047 2.19526C14.0651 2.45561 14.0651 2.87772 13.8047 3.13807L3.13807 13.8047C2.87772 14.0651 2.45561 14.0651 2.19526 13.8047C1.93491 13.5444 1.93491 13.1223 2.19526 12.8619L12.8619 2.19526C13.1223 1.93491 13.5444 1.93491 13.8047 2.19526Z" fill="#C0C0C0"/>
<path fill-rule="evenodd" clip-rule="evenodd" d="M12.5842 5.51991C12.8493 5.26445 13.2714 5.27231 13.5268 5.53747C13.9427 5.9691 14.3339 6.42382 14.6986 6.89946C14.9424 7.21407 15.0749 7.6008 15.0751 7.99891C15.0753 8.39709 14.9431 8.78402 14.6995 9.0989C14.1836 9.77217 13.2986 10.8138 12.167 11.693C11.042 12.5671 9.60508 13.3333 8.00005 13.3333H7.99702V13.3333C7.48207 13.331 6.97008 13.2552 6.47652 13.1083C6.12364 13.0033 5.92272 12.632 6.02776 12.2791C6.1328 11.9263 6.50403 11.7253 6.85692 11.8304C7.22847 11.941 7.61389 11.9981 8.00155 12C9.18399 11.9995 10.3345 11.4283 11.349 10.6401C12.3563 9.85749 13.1625 8.91271 13.6422 8.2866L13.6446 8.28337C13.7076 8.20217 13.7418 8.10232 13.7418 7.99955C13.7417 7.89679 13.7074 7.79696 13.6444 7.71583L13.6416 7.71227L13.6416 7.71226C13.3071 7.27581 12.9482 6.85858 12.5666 6.46255C12.3112 6.1974 12.319 5.77536 12.5842 5.51991Z" fill="#C0C0C0"/>
</svg>
