<svg width="16" height="16" viewBox="0 0 16 16" fill="none" xmlns="http://www.w3.org/2000/svg">
<path d="M14.1713 7.30801C14.4873 7.72134 14.4873 8.27934 14.1713 8.69201C13.176 9.99134 10.788 12.6667 7.99997 12.6667C5.21197 12.6667 2.82397 9.99134 1.82863 8.69201C1.67489 8.4941 1.59143 8.25062 1.59143 8.00001C1.59143 7.7494 1.67489 7.50592 1.82863 7.30801C2.82397 6.00868 5.21197 3.33334 7.99997 3.33334C10.788 3.33334 13.176 6.00868 14.1713 7.30801V7.30801Z" stroke="#C0C0C0" stroke-width="1.33333" stroke-linecap="round" stroke-linejoin="round"/>
<path d="M8 10C9.10457 10 10 9.10457 10 8C10 6.89543 9.10457 6 8 6C6.89543 6 6 6.89543 6 8C6 9.10457 6.89543 10 8 10Z" stroke="#C0C0C0" stroke-width="1.33333" stroke-linecap="round" stroke-linejoin="round"/>
</svg>
