<svg width="14" height="14" viewBox="0 0 14 14" fill="none" xmlns="http://www.w3.org/2000/svg">
<path d="M8.22937 0.91875C7.868 -0.30625 6.132 -0.30625 5.77062 0.91875L5.68313 1.21625C5.62913 1.39965 5.53477 1.56863 5.40697 1.71081C5.27916 1.85299 5.12116 1.96476 4.94453 2.03793C4.76791 2.1111 4.57715 2.1438 4.38624 2.13365C4.19533 2.1235 4.00912 2.07074 3.84125 1.97925L3.57 1.8305C2.44737 1.21975 1.21975 2.44738 1.83137 3.56912L1.97925 3.84125C2.3695 4.55875 1.99937 5.45213 1.21625 5.68313L0.91875 5.77062C-0.30625 6.132 -0.30625 7.868 0.91875 8.22937L1.21625 8.31688C1.39965 8.37087 1.56863 8.46523 1.71081 8.59303C1.85299 8.72084 1.96476 8.87884 2.03793 9.05547C2.1111 9.23209 2.1438 9.42285 2.13365 9.61376C2.1235 9.80467 2.07074 9.99088 1.97925 10.1587L1.8305 10.43C1.21975 11.5526 2.44738 12.7802 3.56912 12.1686L3.84125 12.0208C4.00912 11.9293 4.19533 11.8765 4.38624 11.8664C4.57715 11.8562 4.76791 11.8889 4.94453 11.9621C5.12116 12.0352 5.27916 12.147 5.40697 12.2892C5.53477 12.4314 5.62913 12.6004 5.68313 12.7837L5.77062 13.0813C6.132 14.3062 7.868 14.3062 8.22937 13.0813L8.31688 12.7837C8.37087 12.6004 8.46523 12.4314 8.59303 12.2892C8.72084 12.147 8.87884 12.0352 9.05547 11.9621C9.23209 11.8889 9.42285 11.8562 9.61376 11.8664C9.80467 11.8765 9.99088 11.9293 10.1587 12.0208L10.43 12.1695C11.5526 12.7802 12.7802 11.5526 12.1686 10.4309L12.0208 10.1587C11.9293 9.99088 11.8765 9.80467 11.8664 9.61376C11.8562 9.42285 11.8889 9.23209 11.9621 9.05547C12.0352 8.87884 12.147 8.72084 12.2892 8.59303C12.4314 8.46523 12.6004 8.37087 12.7837 8.31688L13.0813 8.22937C14.3062 7.868 14.3062 6.132 13.0813 5.77062L12.7837 5.68313C12.6004 5.62913 12.4314 5.53477 12.2892 5.40697C12.147 5.27916 12.0352 5.12116 11.9621 4.94453C11.8889 4.76791 11.8562 4.57715 11.8664 4.38624C11.8765 4.19533 11.9293 4.00912 12.0208 3.84125L12.1695 3.57C12.7802 2.44737 11.5526 1.21975 10.4309 1.83137L10.1587 1.97925C9.99088 2.07074 9.80467 2.1235 9.61376 2.13365C9.42285 2.1438 9.23209 2.1111 9.05547 2.03793C8.87884 1.96476 8.72084 1.85299 8.59303 1.71081C8.46523 1.56863 8.37087 1.39965 8.31688 1.21625L8.22937 0.91875ZM7 9.56375C6.32005 9.56375 5.66795 9.29364 5.18716 8.81285C4.70636 8.33205 4.43625 7.67995 4.43625 7C4.43625 6.32005 4.70636 5.66795 5.18716 5.18716C5.66795 4.70636 6.32005 4.43625 7 4.43625C7.67972 4.43625 8.33159 4.70627 8.81223 5.1869C9.29286 5.66753 9.56287 6.31941 9.56287 6.99913C9.56287 7.67884 9.29286 8.33072 8.81223 8.81135C8.33159 9.29198 7.67972 9.562 7 9.562V9.56375Z" fill="white"/>
</svg>
