<svg width="32" height="32" viewBox="0 0 32 32" fill="none" xmlns="http://www.w3.org/2000/svg">
<path d="M28 16C28 19.1826 26.7357 22.2348 24.4853 24.4853C22.2348 26.7357 19.1826 28 16 28C12.8174 28 9.76516 26.7357 7.51472 24.4853C5.26428 22.2348 4 19.1826 4 16C4 12.8174 5.26428 9.76516 7.51472 7.51472C9.76516 5.26428 12.8174 4 16 4C19.1826 4 22.2348 5.26428 24.4853 7.51472C26.7357 9.76516 28 12.8174 28 16V16ZM12.244 13.0495H13.4815C13.6885 13.0495 13.8535 12.88 13.8805 12.6745C14.0155 11.6905 14.6905 10.9735 15.8935 10.9735C16.9225 10.9735 17.8645 11.488 17.8645 12.7255C17.8645 13.678 17.3035 14.116 16.417 14.782C15.4075 15.5155 14.608 16.372 14.665 17.7625L14.6695 18.088C14.6711 18.1864 14.7113 18.2803 14.7814 18.3493C14.8516 18.4183 14.9461 18.457 15.0445 18.457H16.261C16.3605 18.457 16.4558 18.4175 16.5262 18.3472C16.5965 18.2768 16.636 18.1815 16.636 18.082V17.9245C16.636 16.8475 17.0455 16.534 18.151 15.6955C19.0645 15.001 20.017 14.23 20.017 12.6115C20.017 10.345 18.103 9.25 16.0075 9.25C14.107 9.25 12.025 10.135 11.8825 12.679C11.8804 12.7274 11.8883 12.7758 11.9056 12.8211C11.923 12.8664 11.9494 12.9076 11.9832 12.9423C12.0171 12.977 12.0577 13.0044 12.1025 13.0229C12.1474 13.0413 12.1955 13.0504 12.244 13.0495V13.0495ZM15.7315 22.714C16.6465 22.714 17.275 22.123 17.275 21.3235C17.275 20.4955 16.645 19.9135 15.7315 19.9135C14.8555 19.9135 14.218 20.4955 14.218 21.3235C14.218 22.123 14.8555 22.714 15.733 22.714H15.7315Z" fill="#3B7A47"/>
</svg>
