<svg width="24" height="25" viewBox="0 0 24 25" fill="none" xmlns="http://www.w3.org/2000/svg">
<path d="M12 6.34186C11.2931 6.34186 10.602 6.5515 10.0141 6.94427C9.42632 7.33703 8.96817 7.89529 8.69763 8.54844C8.42709 9.20159 8.3563 9.9203 8.49422 10.6137C8.63214 11.3071 8.97258 11.944 9.47248 12.4439C9.97238 12.9438 10.6093 13.2842 11.3027 13.4221C11.9961 13.5601 12.7148 13.4893 13.3679 13.2187C14.0211 12.9482 14.5793 12.49 14.9721 11.9022C15.3649 11.3144 15.5745 10.6233 15.5745 9.91634C15.5745 8.96832 15.1979 8.05914 14.5276 7.3888C13.8572 6.71845 12.948 6.34186 12 6.34186ZM12 12.061C11.5758 12.061 11.1612 11.9352 10.8085 11.6996C10.4558 11.4639 10.1809 11.129 10.0186 10.7371C9.85626 10.3452 9.81379 9.91396 9.89654 9.49793C9.97929 9.0819 10.1836 8.69975 10.4835 8.39981C10.7834 8.09987 11.1656 7.89561 11.5816 7.81286C11.9976 7.7301 12.4289 7.77258 12.8208 7.9349C13.2126 8.09723 13.5476 8.37212 13.7833 8.72481C14.0189 9.0775 14.1447 9.49216 14.1447 9.91634C14.1441 10.485 13.918 11.0301 13.5159 11.4322C13.1138 11.8343 12.5686 12.0605 12 12.061Z" fill="#333333" stroke="#333333" stroke-width="0.5"/>
<path d="M12 2.05249C10.0205 2.05249 8.08545 2.63948 6.43955 3.73923C4.79366 4.83898 3.51084 6.4021 2.75331 8.23093C1.99579 10.0597 1.79759 12.0721 2.18377 14.0136C2.56995 15.9551 3.52317 17.7384 4.92289 19.1381C6.32261 20.5378 8.10596 21.4911 10.0474 21.8773C11.9889 22.2634 14.0013 22.0652 15.8301 21.3077C17.6589 20.5502 19.222 19.2674 20.3218 17.6215C21.4215 15.9756 22.0085 14.0405 22.0085 12.061C22.0055 9.40753 20.9501 6.86357 19.0738 4.98727C17.1974 3.11096 14.6535 2.05552 12 2.05249V2.05249ZM7.71062 19.4795V18.4951C7.71119 17.9265 7.93733 17.3813 8.33941 16.9792C8.7415 16.5771 9.28668 16.351 9.85531 16.3504H14.1447C14.7133 16.351 15.2585 16.5771 15.6606 16.9792C16.0627 17.3813 16.2888 17.9265 16.2894 18.4951V19.4795C14.9877 20.2396 13.5074 20.6401 12 20.6401C10.4926 20.6401 9.01233 20.2396 7.71062 19.4795V19.4795ZM17.7134 18.4422C17.6992 17.5045 17.3171 16.6099 16.6496 15.9512C15.9821 15.2925 15.0825 14.9224 14.1447 14.9206H9.85531C8.9175 14.9224 8.01791 15.2925 7.35038 15.9512C6.68285 16.6099 6.3008 17.5045 6.28655 18.4422C4.99013 17.2846 4.0759 15.7605 3.66491 14.0718C3.25392 12.3831 3.36556 10.6093 3.98504 8.98545C4.60453 7.36157 5.70264 5.96416 7.13397 4.97825C8.5653 3.99233 10.2623 3.46443 12.0004 3.46443C13.7384 3.46443 15.4354 3.99233 16.8667 4.97825C18.2981 5.96416 19.3962 7.36157 20.0157 8.98545C20.6351 10.6093 20.7468 12.3831 20.3358 14.0718C19.9248 15.7605 19.0106 17.2846 17.7142 18.4422H17.7134Z" fill="#333333" stroke="#333333" stroke-width="0.5"/>
</svg>
