<svg width="24" height="24" viewBox="0 0 24 24" fill="none" xmlns="http://www.w3.org/2000/svg">
<path d="M14.5264 5.15356L14.88 5.50711L15.2335 5.15356L17.3935 2.99356C18.3983 1.98882 20.0017 1.98882 21.0064 2.99356C22.0112 3.9983 22.0112 5.60171 21.0064 6.60645L18.8464 8.76645L18.519 9.09385L18.8204 9.4454L19.5404 10.2854L19.5529 10.3L19.5664 10.3136C19.8512 10.5983 19.8512 11.0017 19.5664 11.2865L18.7264 12.1265C18.4417 12.4112 18.0383 12.4112 17.7535 12.1265L11.7535 6.12645C11.4723 5.8452 11.4688 5.44815 11.7432 5.16406L12.6892 4.33629L12.7018 4.32533L12.7135 4.31356C12.9983 4.02882 13.4017 4.02882 13.6864 4.31356L14.5264 5.15356ZM2.689 21.5419L2.45809 21.311C3.44534 19.9205 3.68737 18.8829 3.90274 17.9597C3.91409 17.911 3.92538 17.8626 3.9367 17.8145C4.05538 17.3101 4.17259 16.862 4.40846 16.3836C4.64305 15.9077 5.00576 15.3813 5.63354 14.7536L11.4 8.98711L15.0129 12.6L9.24643 18.3665C8.61865 18.9942 8.09229 19.3569 7.61641 19.5915C7.13795 19.8274 6.68986 19.9446 6.18547 20.0633C6.13737 20.0746 6.089 20.0859 6.0403 20.0973C5.11707 20.3126 4.0795 20.5547 2.689 21.5419Z" fill="white"/>
<path d="M14.5264 5.15356L14.88 5.50711L15.2335 5.15356L17.3935 2.99356C18.3983 1.98882 20.0017 1.98882 21.0064 2.99356C22.0112 3.9983 22.0112 5.60171 21.0064 6.60645L18.8464 8.76645L18.519 9.09385L18.8204 9.4454L19.5404 10.2854L19.5529 10.3L19.5664 10.3136C19.8512 10.5983 19.8512 11.0017 19.5664 11.2865L18.7264 12.1265C18.4417 12.4112 18.0383 12.4112 17.7535 12.1265L11.7535 6.12645C11.4723 5.8452 11.4688 5.44815 11.7432 5.16406L12.6892 4.33629L12.7018 4.32533L12.7135 4.31356C12.9983 4.02882 13.4017 4.02882 13.6864 4.31356L14.5264 5.15356ZM2.689 21.5419L2.45809 21.311C3.44534 19.9205 3.68737 18.8829 3.90274 17.9597C3.91409 17.911 3.92538 17.8626 3.9367 17.8145C4.05538 17.3101 4.17259 16.862 4.40846 16.3836C4.64305 15.9077 5.00576 15.3813 5.63354 14.7536L11.4 8.98711L15.0129 12.6L9.24643 18.3665C8.61865 18.9942 8.09229 19.3569 7.61641 19.5915C7.13795 19.8274 6.68986 19.9446 6.18547 20.0633C6.13737 20.0746 6.089 20.0859 6.0403 20.0973C5.11707 20.3126 4.0795 20.5547 2.689 21.5419Z" fill="#2F5A3A" fill-opacity="0.5"/>
<path d="M14.5264 5.15356L14.88 5.50711L15.2335 5.15356L17.3935 2.99356C18.3983 1.98882 20.0017 1.98882 21.0064 2.99356C22.0112 3.9983 22.0112 5.60171 21.0064 6.60645L18.8464 8.76645L18.519 9.09385L18.8204 9.4454L19.5404 10.2854L19.5529 10.3L19.5664 10.3136C19.8512 10.5983 19.8512 11.0017 19.5664 11.2865L18.7264 12.1265C18.4417 12.4112 18.0383 12.4112 17.7535 12.1265L11.7535 6.12645C11.4723 5.8452 11.4688 5.44815 11.7432 5.16406L12.6892 4.33629L12.7018 4.32533L12.7135 4.31356C12.9983 4.02882 13.4017 4.02882 13.6864 4.31356L14.5264 5.15356ZM2.689 21.5419L2.45809 21.311C3.44534 19.9205 3.68737 18.8829 3.90274 17.9597C3.91409 17.911 3.92538 17.8626 3.9367 17.8145C4.05538 17.3101 4.17259 16.862 4.40846 16.3836C4.64305 15.9077 5.00576 15.3813 5.63354 14.7536L11.4 8.98711L15.0129 12.6L9.24643 18.3665C8.61865 18.9942 8.09229 19.3569 7.61641 19.5915C7.13795 19.8274 6.68986 19.9446 6.18547 20.0633C6.13737 20.0746 6.089 20.0859 6.0403 20.0973C5.11707 20.3126 4.0795 20.5547 2.689 21.5419Z" stroke="white"/>
<path d="M14.5264 5.15356L14.88 5.50711L15.2335 5.15356L17.3935 2.99356C18.3983 1.98882 20.0017 1.98882 21.0064 2.99356C22.0112 3.9983 22.0112 5.60171 21.0064 6.60645L18.8464 8.76645L18.519 9.09385L18.8204 9.4454L19.5404 10.2854L19.5529 10.3L19.5664 10.3136C19.8512 10.5983 19.8512 11.0017 19.5664 11.2865L18.7264 12.1265C18.4417 12.4112 18.0383 12.4112 17.7535 12.1265L11.7535 6.12645C11.4723 5.8452 11.4688 5.44815 11.7432 5.16406L12.6892 4.33629L12.7018 4.32533L12.7135 4.31356C12.9983 4.02882 13.4017 4.02882 13.6864 4.31356L14.5264 5.15356ZM2.689 21.5419L2.45809 21.311C3.44534 19.9205 3.68737 18.8829 3.90274 17.9597C3.91409 17.911 3.92538 17.8626 3.9367 17.8145C4.05538 17.3101 4.17259 16.862 4.40846 16.3836C4.64305 15.9077 5.00576 15.3813 5.63354 14.7536L11.4 8.98711L15.0129 12.6L9.24643 18.3665C8.61865 18.9942 8.09229 19.3569 7.61641 19.5915C7.13795 19.8274 6.68986 19.9446 6.18547 20.0633C6.13737 20.0746 6.089 20.0859 6.0403 20.0973C5.11707 20.3126 4.0795 20.5547 2.689 21.5419Z" stroke="#2F5A3A" stroke-opacity="0.5"/>
</svg>
