<svg width="24" height="24" viewBox="0 0 24 24" fill="none" xmlns="http://www.w3.org/2000/svg">
<rect x="17.9828" y="3.44965" width="3.62159" height="13.4437" rx="1.8108" transform="rotate(45 17.9828 3.44965)" fill="white"/>
<path d="M9.22882 13.0406L9.22882 13.7662C9.22882 14.3185 9.67654 14.7662 10.2288 14.7662H11.0007C10.5497 14.757 10.1014 14.5804 9.75721 14.2362C9.42522 13.9042 9.24909 13.4754 9.22882 13.0406Z" fill="white"/>
<path d="M6.48393 3.44965C4.73055 3.44965 3.30914 4.87105 3.30914 6.62444V17.5094C3.30914 19.2628 4.73055 20.6842 6.48393 20.6842H17.3689C19.1223 20.6842 20.5437 19.2628 20.5437 17.5094V12.3504C20.5437 11.8181 20.1122 11.3866 19.5799 11.3866C19.0477 11.3866 18.6162 11.8181 18.6162 12.3504V17.5094C18.6162 18.1983 18.0578 18.7567 17.3689 18.7567H6.48393C5.7951 18.7567 5.23669 18.1983 5.23669 17.5094V6.62444C5.23669 5.93561 5.7951 5.3772 6.48393 5.3772H11.643C12.1752 5.3772 12.6067 4.9457 12.6067 4.41342C12.6067 3.88114 12.1752 3.44965 11.643 3.44965H6.48393Z" fill="white"/>
</svg>
