<svg width="25" height="24" viewBox="0 0 25 24" fill="none" xmlns="http://www.w3.org/2000/svg">
<path d="M6.91966 3.88272C5.16628 3.88272 3.74487 5.30412 3.74487 7.05751V16.9425C3.74487 18.6959 5.16628 20.1173 6.91966 20.1173H18.8047C20.558 20.1173 21.9795 18.6959 21.9795 16.9425V8.50663L21.0286 9.66642L20.0519 10.8216V16.9425C20.0519 17.6313 19.4935 18.1897 18.8047 18.1897H6.91966C6.23083 18.1897 5.67242 17.6313 5.67242 16.9425V7.05751C5.67242 6.36868 6.23083 5.81027 6.91966 5.81027H20.6399C21.1722 5.81027 21.6037 5.37878 21.6037 4.8465C21.6037 4.31422 21.1722 3.88272 20.6399 3.88272H6.91966Z" fill="white"/>
<path d="M19.483 4.26799C19.7605 4.01989 20.1298 3.88272 20.513 3.88545C20.8962 3.88817 21.2633 4.03056 21.5368 4.28258C21.8103 4.5346 21.9688 4.87654 21.9789 5.23623C21.9891 5.59592 21.85 5.94525 21.591 6.21048L13.8433 14.2958C13.7081 14.4326 13.545 14.5423 13.3636 14.6184C13.1823 14.6946 12.9864 14.7356 12.7878 14.7391C12.5892 14.7425 12.3918 14.7083 12.2076 14.6385C12.0233 14.5687 11.856 14.4648 11.7155 14.3328L5.03969 7.27121C4.89452 7.14418 4.77808 6.991 4.69731 6.8208C4.61655 6.65061 4.57313 6.46688 4.56963 6.28058C4.56613 6.09428 4.60262 5.90922 4.67694 5.73646C4.75126 5.56369 4.86187 5.40675 5.00218 5.27499C5.1425 5.14324 5.30963 5.03937 5.49362 4.96959C5.67761 4.8998 5.87469 4.86553 6.07309 4.86882C6.27149 4.87211 6.46716 4.91288 6.64841 4.98872C6.82966 5.06455 6.99279 5.17389 7.12807 5.31021L12.7164 11.3488L19.4455 4.30869C19.4579 4.29445 19.471 4.28086 19.4849 4.26799H19.483Z" fill="white"/>
</svg>
