<svg width="24" height="24" viewBox="0 0 24 24" fill="none" xmlns="http://www.w3.org/2000/svg">
<path d="M6.48393 3.44965C4.73055 3.44965 3.30914 4.87105 3.30914 6.62444V17.5094C3.30914 19.2628 4.73055 20.6842 6.48393 20.6842H17.3689C19.1223 20.6842 20.5437 19.2628 20.5437 17.5094V12.3504C20.5437 11.8181 20.1122 11.3866 19.5799 11.3866C19.0477 11.3866 18.6162 11.8181 18.6162 12.3504V17.5094C18.6162 18.1983 18.0578 18.7567 17.3689 18.7567H6.48393C5.7951 18.7567 5.23669 18.1983 5.23669 17.5094V6.62444C5.23669 5.93561 5.7951 5.3772 6.48393 5.3772H11.643C12.1752 5.3772 12.6067 4.9457 12.6067 4.41342C12.6067 3.88114 12.1752 3.44965 11.643 3.44965H6.48393Z" fill="white"/>
<path d="M18.6425 3.38258C18.9045 3.13448 19.2533 2.99732 19.6152 3.00004C19.977 3.00276 20.3237 3.14516 20.5819 3.39718C20.8402 3.6492 20.9899 3.99113 20.9995 4.35082C21.0091 4.71052 20.8777 5.05984 20.6332 5.32508L12.8121 14.5565C12.6845 14.6933 12.5304 14.803 12.3591 14.8791C12.1879 14.9553 12.0029 14.9963 11.8153 14.9998C11.6278 15.0032 11.4414 14.969 11.2674 14.8992C11.0935 14.8294 10.9354 14.7255 10.8028 14.5935L7.9439 11.6095C7.80681 11.4825 7.69685 11.3293 7.62058 11.1591C7.54432 10.9889 7.50331 10.8052 7.5 10.6189C7.49669 10.4326 7.53116 10.2475 7.60134 10.0748C7.67152 9.90199 7.77598 9.74505 7.90848 9.61329C8.04099 9.48154 8.19882 9.37767 8.37257 9.30789C8.54632 9.2381 8.73243 9.20383 8.91979 9.20712C9.10715 9.21041 9.29192 9.25118 9.46309 9.32702C9.63425 9.40285 9.78831 9.51219 9.91605 9.64851L11.7479 11.6095L18.6071 3.42328C18.6187 3.40904 18.6312 3.39545 18.6443 3.38258H18.6425Z" fill="white"/>
</svg>
