<svg width="24" height="24" viewBox="0 0 24 24" fill="none" xmlns="http://www.w3.org/2000/svg">
<path d="M20.4 8.40001V11.52C19.1577 10.8854 17.7463 10.6607 16.3684 10.8782C14.9905 11.0957 13.717 11.7442 12.7306 12.7306C11.7442 13.717 11.0957 14.9906 10.8782 16.3685C10.6607 17.7464 10.8854 19.1578 11.52 20.4H6.59998C5.80433 20.4 5.04126 20.0839 4.47866 19.5213C3.91605 18.9587 3.59998 18.1957 3.59998 17.4V8.40001H20.4Z" fill="white"/>
<path d="M17.4 3.60001C18.1956 3.60001 18.9587 3.91608 19.5213 4.47869C20.0839 5.04129 20.4 5.80436 20.4 6.60001V7.20001H3.59998V6.60001C3.59998 5.80436 3.91605 5.04129 4.47866 4.47869C5.04126 3.91608 5.80433 3.60001 6.59998 3.60001H17.4Z" fill="white"/>
<path d="M22.8 17.4C22.8 18.8322 22.2311 20.2057 21.2184 21.2184C20.2057 22.2311 18.8322 22.8 17.4 22.8C15.9678 22.8 14.5943 22.2311 13.5816 21.2184C12.5689 20.2057 12 18.8322 12 17.4C12 15.9678 12.5689 14.5943 13.5816 13.5816C14.5943 12.5689 15.9678 12 17.4 12C18.8322 12 20.2057 12.5689 21.2184 13.5816C22.2311 14.5943 22.8 15.9678 22.8 17.4V17.4ZM18 15C18 14.8409 17.9368 14.6883 17.8243 14.5757C17.7117 14.4632 17.5591 14.4 17.4 14.4C17.2409 14.4 17.0883 14.4632 16.9757 14.5757C16.8632 14.6883 16.8 14.8409 16.8 15V16.8H15C14.8409 16.8 14.6883 16.8632 14.5757 16.9757C14.4632 17.0883 14.4 17.2409 14.4 17.4C14.4 17.5591 14.4632 17.7117 14.5757 17.8243C14.6883 17.9368 14.8409 18 15 18H16.8V19.8C16.8 19.9591 16.8632 20.1117 16.9757 20.2243C17.0883 20.3368 17.2409 20.4 17.4 20.4C17.5591 20.4 17.7117 20.3368 17.8243 20.2243C17.9368 20.1117 18 19.9591 18 19.8V18H19.8C19.9591 18 20.1117 17.9368 20.2243 17.8243C20.3368 17.7117 20.4 17.5591 20.4 17.4C20.4 17.2409 20.3368 17.0883 20.2243 16.9757C20.1117 16.8632 19.9591 16.8 19.8 16.8H18V15Z" fill="white"/>
</svg>
