<svg width="17" height="17" viewBox="0 0 17 17" fill="none" xmlns="http://www.w3.org/2000/svg">
<rect x="0.153381" y="0.939087" width="16" height="16" rx="4" fill="#2F5A3A"/>
<path fill-rule="evenodd" clip-rule="evenodd" d="M12.5715 5.06745C12.6885 5.1144 12.7948 5.18445 12.8841 5.27343H12.8854C13.0588 5.44703 13.1573 5.68173 13.1596 5.92713C13.162 6.17252 13.068 6.40905 12.8979 6.58593L7.90786 12.8234C7.82212 12.9156 7.71869 12.9896 7.60373 13.0409C7.48878 13.0923 7.36467 13.1199 7.2388 13.1223C7.11292 13.1246 6.98787 13.1015 6.87109 13.0545C6.75432 13.0075 6.64822 12.9374 6.55911 12.8484L3.25161 9.53968C3.08601 9.36196 2.99586 9.1269 3.00015 8.88403C3.00443 8.64115 3.10282 8.40942 3.27459 8.23765C3.44635 8.06589 3.67809 7.9675 3.92096 7.96321C4.16384 7.95893 4.3989 8.04908 4.57661 8.21468L7.19286 10.8322L11.5341 5.30093C11.6197 5.20839 11.7231 5.13406 11.8381 5.08239C11.953 5.03072 12.0772 5.00276 12.2033 5.00019C12.3293 4.99763 12.4545 5.0205 12.5715 5.06745Z" fill="white"/>
</svg>
