<svg width="20" height="20" viewBox="0 0 20 20" fill="none" xmlns="http://www.w3.org/2000/svg">
<g clip-path="url(#clip0_1066:2695)">
<path fill-rule="evenodd" clip-rule="evenodd" d="M5.66504 1.66504C3.4559 1.66504 1.66504 3.4559 1.66504 5.66504V14.335C1.66504 16.5442 3.4559 18.335 5.66504 18.335H14.335C16.5442 18.335 18.335 16.5442 18.335 14.335V5.66504C18.335 3.4559 16.5442 1.66504 14.335 1.66504H5.66504ZM14.5056 5.23848C14.5056 4.79665 14.1474 4.43848 13.7056 4.43848C13.2638 4.43848 12.9056 4.79665 12.9056 5.23848V10.3843H7.60742L8.69739 9.29438C9.00981 8.98197 9.00982 8.47544 8.69741 8.16301C8.38499 7.85059 7.87846 7.85058 7.56604 8.16299L5.11032 10.6186C4.88152 10.8474 4.81307 11.1915 4.93689 11.4904C4.97724 11.5879 5.03542 11.6742 5.10673 11.7464C5.12009 11.762 5.13415 11.7772 5.14891 11.792L7.55281 14.1959C7.86523 14.5083 8.37176 14.5083 8.68418 14.1959C8.9966 13.8834 8.9966 13.3769 8.68418 13.0645L7.60401 11.9843H13.7056C14.1474 11.9843 14.5056 11.6261 14.5056 11.1843V5.23848Z" fill="#C0C0C0"/>
</g>
<defs>
<clipPath id="clip0_1066:2695">
<rect x="1.66504" y="1.66504" width="16.67" height="16.67" rx="4" fill="white"/>
</clipPath>
</defs>
</svg>
