<svg width="32" height="32" viewBox="0 0 32 32" fill="none" xmlns="http://www.w3.org/2000/svg">
<rect width="32" height="32" rx="8" fill="#3B7A47"/>
<rect x="6" y="6" width="20" height="20" rx="4" fill="white"/>
<path fill-rule="evenodd" clip-rule="evenodd" d="M14 8C13.7348 8 13.4804 8.10536 13.2929 8.29289C13.1054 8.48043 13 8.73478 13 9C13 9.26522 13.1054 9.51957 13.2929 9.70711C13.4804 9.89464 13.7348 10 14 10H18C18.2652 10 18.5196 9.89464 18.7071 9.70711C18.8946 9.51957 19 9.26522 19 9C19 8.73478 18.8946 8.48043 18.7071 8.29289C18.5196 8.10536 18.2652 8 18 8H14ZM14 6C13.3794 5.99982 12.774 6.19206 12.2671 6.55024C11.7603 6.90842 11.377 7.41493 11.17 8H10C9.20435 8 8.44129 8.31607 7.87868 8.87868C7.31607 9.44129 7 10.2044 7 11V23C7 23.7956 7.31607 24.5587 7.87868 25.1213C8.44129 25.6839 9.20435 26 10 26H22C22.7956 26 23.5587 25.6839 24.1213 25.1213C24.6839 24.5587 25 23.7956 25 23V11C25 10.2044 24.6839 9.44129 24.1213 8.87868C23.5587 8.31607 22.7956 8 22 8H20.83C20.623 7.41493 20.2397 6.90842 19.7329 6.55024C19.226 6.19206 18.6206 5.99982 18 6H14ZM12 14C11.7348 14 11.4804 14.1054 11.2929 14.2929C11.1054 14.4804 11 14.7348 11 15C11 15.2652 11.1054 15.5196 11.2929 15.7071C11.4804 15.8946 11.7348 16 12 16H20C20.2652 16 20.5196 15.8946 20.7071 15.7071C20.8946 15.5196 21 15.2652 21 15C21 14.7348 20.8946 14.4804 20.7071 14.2929C20.5196 14.1054 20.2652 14 20 14H12ZM12 18C11.7348 18 11.4804 18.1054 11.2929 18.2929C11.1054 18.4804 11 18.7348 11 19C11 19.2652 11.1054 19.5196 11.2929 19.7071C11.4804 19.8946 11.7348 20 12 20H16C16.2652 20 16.5196 19.8946 16.7071 19.7071C16.8946 19.5196 17 19.2652 17 19C17 18.7348 16.8946 18.4804 16.7071 18.2929C16.5196 18.1054 16.2652 18 16 18H12Z" fill="white"/>
<rect x="10" y="14" width="12" height="2" rx="1" fill="#3B7A47"/>
<rect x="10" y="10" width="12" height="2" rx="1" fill="#3B7A47"/>
<rect x="10" y="18" width="7" height="2" rx="1" fill="#3B7A47"/>
</svg>
