<svg width="24" height="24" viewBox="0 0 24 24" fill="none" xmlns="http://www.w3.org/2000/svg">
<path d="M15 17H18V14H20V17H23V19H20V22H18V19H15V17ZM13 19.88C13.04 20.18 12.94 20.5 12.72 20.71C12.32 21.1 11.69 21.1 11.3 20.71L7.29001 16.7C7.18094 16.5934 7.09801 16.463 7.04771 16.319C6.9974 16.175 6.98107 16.0213 7.00001 15.87V10.75L2.21001 4.62C2.04762 4.41153 1.97434 4.14726 2.0062 3.88493C2.03805 3.6226 2.17244 3.38355 2.38001 3.22C2.57001 3.08 2.78001 3 3.00001 3H17C17.22 3 17.43 3.08 17.62 3.22C17.8276 3.38355 17.962 3.6226 17.9938 3.88493C18.0257 4.14726 17.9524 4.41153 17.79 4.62L13 10.75V19.88V19.88ZM5.04001 5L9.00001 10.07V15.58L11 17.58V10.05L14.96 5H5.04001Z" fill="#808080"/>
</svg>
