<svg width="167" height="167" viewBox="0 0 167 167" fill="none" xmlns="http://www.w3.org/2000/svg">
<rect x="20" y="17" width="128" height="128" rx="32.1778" fill="#F5F5F5"/>
<g filter="url(#filter0_d_1098_3350)">
<path fill-rule="evenodd" clip-rule="evenodd" d="M123.866 58.6894C122.93 58.8642 121.965 58.9556 120.978 58.9556C112.338 58.9556 105.333 51.9513 105.333 43.3111C105.333 42.3241 105.425 41.3585 105.6 40.4222H59.5108C50.6251 40.4222 43.4219 47.6255 43.4219 56.5111V104.778C43.4219 113.663 50.6251 120.867 59.5108 120.867H107.777C116.663 120.867 123.866 113.663 123.866 104.778V58.6894Z" fill="white"/>
</g>
<rect x="59.5107" y="72.6" width="48.2667" height="8.04444" rx="4.02222" fill="#F5F5F5"/>
<rect x="59.5107" y="56.5111" width="48.2667" height="8.04444" rx="4.02222" fill="#F5F5F5"/>
<rect x="59.5107" y="88.6889" width="28.1556" height="8.04444" rx="4.02222" fill="#F5F5F5"/>
<g filter="url(#filter1_d_1098_3350)">
<path d="M132.441 43.8729C132.441 50.1234 127.375 55.1878 121.126 55.1878C114.878 55.1878 109.812 50.1234 109.812 43.8729C109.812 37.6261 114.878 32.558 121.126 32.558C127.375 32.558 132.441 37.6261 132.441 43.8729ZM121.43 36.2992C118.944 36.2992 117.358 37.3466 116.113 39.2082C115.951 39.4493 116.005 39.7746 116.236 39.9499L117.82 41.1503C118.057 41.3304 118.395 41.2876 118.58 41.0535C119.395 40.0197 119.954 39.4203 121.194 39.4203C122.126 39.4203 123.279 40.0202 123.279 40.924C123.279 41.6073 122.715 41.9582 121.795 42.4741C120.722 43.0758 119.301 43.8246 119.301 45.6979V45.8804C119.301 46.1828 119.547 46.4279 119.849 46.4279H122.404C122.706 46.4279 122.951 46.1828 122.951 45.8804V45.8196C122.951 44.521 126.747 44.467 126.747 40.953C126.747 38.3066 124.002 36.2992 121.43 36.2992V36.2992ZM121.126 47.6142C119.969 47.6142 119.028 48.5556 119.028 49.7129C119.028 50.8701 119.969 51.8116 121.126 51.8116C122.284 51.8116 123.225 50.8701 123.225 49.7129C123.225 48.5556 122.284 47.6142 121.126 47.6142Z" fill="white"/>
</g>
<defs>
<filter id="filter0_d_1098_3350" x="0.755207" y="0.599987" width="165.778" height="165.778" filterUnits="userSpaceOnUse" color-interpolation-filters="sRGB">
<feFlood flood-opacity="0" result="BackgroundImageFix"/>
<feColorMatrix in="SourceAlpha" type="matrix" values="0 0 0 0 0 0 0 0 0 0 0 0 0 0 0 0 0 0 127 0" result="hardAlpha"/>
<feOffset dy="2.84444"/>
<feGaussianBlur stdDeviation="21.3333"/>
<feComposite in2="hardAlpha" operator="out"/>
<feColorMatrix type="matrix" values="0 0 0 0 0 0 0 0 0 0 0 0 0 0 0 0 0 0 0.1 0"/>
<feBlend mode="normal" in2="BackgroundImageFix" result="effect1_dropShadow_1098_3350"/>
<feBlend mode="normal" in="SourceGraphic" in2="effect1_dropShadow_1098_3350" result="shape"/>
</filter>
<filter id="filter1_d_1098_3350" x="88.4782" y="15.4913" width="65.2966" height="65.2965" filterUnits="userSpaceOnUse" color-interpolation-filters="sRGB">
<feFlood flood-opacity="0" result="BackgroundImageFix"/>
<feColorMatrix in="SourceAlpha" type="matrix" values="0 0 0 0 0 0 0 0 0 0 0 0 0 0 0 0 0 0 127 0" result="hardAlpha"/>
<feOffset dy="4.26667"/>
<feGaussianBlur stdDeviation="10.6667"/>
<feComposite in2="hardAlpha" operator="out"/>
<feColorMatrix type="matrix" values="0 0 0 0 0 0 0 0 0 0 0 0 0 0 0 0 0 0 0.1 0"/>
<feBlend mode="normal" in2="BackgroundImageFix" result="effect1_dropShadow_1098_3350"/>
<feBlend mode="normal" in="SourceGraphic" in2="effect1_dropShadow_1098_3350" result="shape"/>
</filter>
</defs>
</svg>
