<svg width="16" height="16" viewBox="0 0 16 16" fill="none" xmlns="http://www.w3.org/2000/svg">
<rect width="16" height="16" rx="8" fill="#3B7A47"/>
<path fill-rule="evenodd" clip-rule="evenodd" d="M12.4181 4.12836C12.5351 4.17531 12.6414 4.24537 12.7307 4.33434H12.732C12.9054 4.50795 13.0039 4.74264 13.0062 4.98804C13.0086 5.23344 12.9146 5.46997 12.7445 5.64684L7.75448 11.8843C7.66874 11.9765 7.5653 12.0505 7.45035 12.1018C7.3354 12.1532 7.21129 12.1808 7.08542 12.1832C6.95954 12.1855 6.83449 12.1625 6.71771 12.1154C6.60094 12.0684 6.49484 11.9983 6.40573 11.9093L3.09823 8.60059C2.93263 8.42287 2.84248 8.18782 2.84676 7.94494C2.85105 7.70206 2.94944 7.47033 3.12121 7.29857C3.29297 7.1268 3.5247 7.02841 3.76758 7.02412C4.01046 7.01984 4.24551 7.10999 4.42323 7.27559L7.03948 9.89309L11.3807 4.36184C11.4663 4.2693 11.5697 4.19498 11.6847 4.1433C11.7996 4.09163 11.9239 4.06367 12.0499 4.06111C12.1759 4.05854 12.3012 4.08141 12.4181 4.12836Z" fill="white"/>
</svg>
