<svg width="24" height="25" viewBox="0 0 24 25" fill="none" xmlns="http://www.w3.org/2000/svg">
<path d="M12.59 13.1221L10.29 15.4121C10.1963 15.5051 10.1219 15.6157 10.0711 15.7376C10.0203 15.8594 9.9942 15.9901 9.9942 16.1221C9.9942 16.2542 10.0203 16.3849 10.0711 16.5067C10.1219 16.6286 10.1963 16.7392 10.29 16.8321C10.383 16.9259 10.4936 17.0003 10.6154 17.051C10.7373 17.1018 10.868 17.1279 11 17.1279C11.132 17.1279 11.2627 17.1018 11.3846 17.051C11.5064 17.0003 11.617 16.9259 11.71 16.8321L15.71 12.8321C15.801 12.737 15.8724 12.6249 15.92 12.5021C16.02 12.2587 16.02 11.9856 15.92 11.7421C15.8724 11.6194 15.801 11.5072 15.71 11.4121L11.71 7.41214C11.6168 7.3189 11.5061 7.24494 11.3842 7.19448C11.2624 7.14402 11.1319 7.11805 11 7.11805C10.8681 7.11805 10.7376 7.14402 10.6158 7.19448C10.4939 7.24494 10.3832 7.3189 10.29 7.41214C10.1968 7.50538 10.1228 7.61607 10.0723 7.73789C10.0219 7.85971 9.99591 7.99028 9.99591 8.12214C9.99591 8.254 10.0219 8.38457 10.0723 8.50639C10.1228 8.62821 10.1968 8.7389 10.29 8.83214L12.59 11.1221H3C2.73478 11.1221 2.48043 11.2275 2.29289 11.415C2.10536 11.6026 2 11.8569 2 12.1221C2 12.3874 2.10536 12.6417 2.29289 12.8292C2.48043 13.0168 2.73478 13.1221 3 13.1221H12.59ZM12 2.12214C10.1311 2.1138 8.29724 2.62935 6.70647 3.61033C5.11569 4.59131 3.83165 5.99845 3 7.67214C2.88065 7.91083 2.86101 8.18716 2.94541 8.44034C3.0298 8.69351 3.21131 8.90279 3.45 9.02214C3.68869 9.14149 3.96502 9.16113 4.2182 9.07673C4.47137 8.99234 4.68065 8.81083 4.8 8.57214C5.43219 7.29546 6.39383 6.21076 7.58555 5.43013C8.77727 4.6495 10.1558 4.20126 11.5788 4.13173C13.0017 4.06221 14.4174 4.37392 15.6795 5.03465C16.9417 5.69538 18.0045 6.68117 18.7581 7.89014C19.5118 9.0991 19.9289 10.4874 19.9664 11.9115C20.0039 13.3357 19.6605 14.744 18.9715 15.991C18.2826 17.2379 17.2731 18.2783 16.0475 19.0046C14.8219 19.7308 13.4246 20.1166 12 20.1221C10.5089 20.1286 9.04615 19.7145 7.77969 18.9274C6.51323 18.1403 5.49435 17.012 4.84 15.6721C4.72065 15.4334 4.51137 15.2519 4.2582 15.1675C4.00502 15.0832 3.72869 15.1028 3.49 15.2221C3.25131 15.3415 3.0698 15.5508 2.98541 15.8039C2.90101 16.0571 2.92065 16.3334 3.04 16.5721C3.83283 18.1676 5.03752 19.5224 6.52947 20.4962C8.02142 21.47 9.74645 22.0275 11.5261 22.1111C13.3058 22.1947 15.0755 21.8013 16.6521 20.9716C18.2288 20.142 19.5552 18.9061 20.4941 17.392C21.433 15.8778 21.9503 14.1403 21.9925 12.3591C22.0347 10.578 21.6003 8.81793 20.7342 7.26097C19.8682 5.70401 18.6018 4.40671 17.0663 3.50325C15.5307 2.59978 13.7816 2.12298 12 2.12214V2.12214Z" fill="#333333"/>
</svg>
