<svg width="24" height="24" viewBox="0 0 24 24" fill="none" xmlns="http://www.w3.org/2000/svg">
<path fill-rule="evenodd" clip-rule="evenodd" d="M8.00352 9.51231C8.26571 9.51003 8.51832 9.61082 8.70692 9.79298L11.9999 13.086L15.2929 9.79298C15.4815 9.61082 15.7341 9.51003 15.9963 9.51231C16.2585 9.51458 16.5093 9.61975 16.6947 9.80516C16.8801 9.99057 16.9853 10.2414 16.9876 10.5036C16.9899 10.7658 16.8891 11.0184 16.7069 11.207L12.7069 15.207C12.5194 15.3945 12.2651 15.4998 11.9999 15.4998C11.7348 15.4998 11.4804 15.3945 11.2929 15.207L7.29292 11.207C7.11076 11.0184 7.00997 10.7658 7.01224 10.5036C7.01452 10.2414 7.11969 9.99057 7.3051 9.80516C7.49051 9.61975 7.74132 9.51458 8.00352 9.51231Z" fill="#333333"/>
</svg>
