<svg width="24" height="24" viewBox="0 0 24 24" fill="none" xmlns="http://www.w3.org/2000/svg">
<path fill-rule="evenodd" clip-rule="evenodd" d="M8.00358 9.51232C8.26578 9.51004 8.51838 9.61084 8.70698 9.793L12 13.086L15.293 9.793C15.4816 9.61084 15.7342 9.51004 15.9964 9.51232C16.2586 9.5146 16.5094 9.61977 16.6948 9.80518C16.8802 9.99058 16.9854 10.2414 16.9877 10.5036C16.9899 10.7658 16.8891 11.0184 16.707 11.207L12.707 15.207C12.5195 15.3945 12.2651 15.4998 12 15.4998C11.7348 15.4998 11.4805 15.3945 11.293 15.207L7.29298 11.207C7.11082 11.0184 7.01003 10.7658 7.01231 10.5036C7.01458 10.2414 7.11975 9.99058 7.30516 9.80518C7.49057 9.61977 7.74138 9.5146 8.00358 9.51232Z" fill="#3B7A47"/>
</svg>
