<svg width="17" height="18" viewBox="0 0 17 18" fill="none" xmlns="http://www.w3.org/2000/svg">
<path fill-rule="evenodd" clip-rule="evenodd" d="M13.6911 14.0913C16.5029 11.2795 16.5029 6.7207 13.6911 3.90893C10.8793 1.09715 6.32056 1.09715 3.50878 3.90893C0.697007 6.7207 0.697007 11.2795 3.50878 14.0913C6.32056 16.903 10.8793 16.903 13.6911 14.0913ZM14.5396 14.9398C17.8201 11.6594 17.8201 6.3408 14.5396 3.0604C11.2592 -0.220003 5.94066 -0.220004 2.66025 3.0604C-0.62015 6.3408 -0.62015 11.6594 2.66025 14.9398C5.94066 18.2202 11.2592 18.2202 14.5396 14.9398Z" fill="#333333"/>
<path fill-rule="evenodd" clip-rule="evenodd" d="M13.6911 14.0913C16.5029 11.2795 16.5029 6.7207 13.6911 3.90893C10.8793 1.09715 6.32056 1.09715 3.50878 3.90893C0.697007 6.7207 0.697007 11.2795 3.50878 14.0913C6.32056 16.903 10.8793 16.903 13.6911 14.0913ZM4.02739 8.35409C3.94249 8.43898 3.87518 8.53979 3.8293 8.65074C3.7835 8.76152 3.75997 8.88024 3.76004 9.0001C3.75997 9.11997 3.7835 9.23868 3.8293 9.34945C3.87518 9.4604 3.94249 9.56121 4.02739 9.64611C4.11228 9.731 4.21309 9.79831 4.32404 9.84419C4.43485 9.89 4.55359 9.91354 4.67348 9.91345L7.68733 9.91288L7.68676 12.9267C7.68676 13.0467 7.71038 13.1655 7.75628 13.2763C7.80218 13.3871 7.86946 13.4878 7.95427 13.5726C8.03908 13.6575 8.13977 13.7247 8.25058 13.7706C8.3614 13.8165 8.48017 13.8402 8.60011 13.8402C8.72005 13.8402 8.83882 13.8165 8.94963 13.7706C9.06045 13.7247 9.16114 13.6575 9.24595 13.5726C9.33076 13.4878 9.39804 13.3871 9.44394 13.2763C9.48984 13.1655 9.51346 13.0468 9.51346 12.9268L9.51289 9.91288L12.5267 9.91345C12.6467 9.91345 12.7655 9.88983 12.8763 9.84393C12.9872 9.79803 13.0878 9.73075 13.1727 9.64594C13.2575 9.56113 13.3247 9.46044 13.3706 9.34962C13.4165 9.23881 13.4402 9.12004 13.4402 9.0001C13.4402 8.88016 13.4165 8.76139 13.3706 8.65057C13.3247 8.53976 13.2575 8.43907 13.1727 8.35426C13.0878 8.26945 12.9872 8.20217 12.8763 8.15627C12.7655 8.11037 12.6468 8.08675 12.5268 8.08675L9.51289 8.08732L9.51346 5.07347C9.51346 4.95353 9.48983 4.83468 9.44393 4.72386C9.39803 4.61305 9.33075 4.51236 9.24594 4.42755C9.16113 4.34274 9.06045 4.27546 8.94963 4.22956C8.83882 4.18366 8.72005 4.16003 8.60011 4.16003C8.48017 4.16003 8.3614 4.18366 8.25058 4.22956C8.13977 4.27546 8.03908 4.34274 7.95427 4.42755C7.86946 4.51236 7.80218 4.61305 7.75628 4.72386C7.71038 4.83467 7.68676 4.95344 7.68675 5.07339L7.68733 8.08732L4.67396 8.08675C4.55407 8.08666 4.43485 8.11019 4.32404 8.156C4.21309 8.20188 4.11228 8.26919 4.02739 8.35409Z" fill="#333333"/>
</svg>
