<svg width="18" height="18" viewBox="0 0 18 18" fill="none" xmlns="http://www.w3.org/2000/svg">
<path fill-rule="evenodd" clip-rule="evenodd" d="M8.99985 16.2001C12.9763 16.2001 16.1998 12.9765 16.1998 9.0001C16.1998 5.02365 12.9763 1.8001 8.99985 1.8001C5.0234 1.8001 1.79985 5.02365 1.79985 9.0001C1.79985 12.9765 5.0234 16.2001 8.99985 16.2001ZM8.99985 17.4001C13.639 17.4001 17.3998 13.6393 17.3998 9.0001C17.3998 4.36091 13.639 0.600098 8.99985 0.600098C4.36066 0.600098 0.599854 4.36091 0.599854 9.0001C0.599854 13.6393 4.36066 17.4001 8.99985 17.4001Z" fill="#333333"/>
<path fill-rule="evenodd" clip-rule="evenodd" d="M8.99985 16.2001C12.9763 16.2001 16.1998 12.9765 16.1998 9.0001C16.1998 5.02365 12.9763 1.8001 8.99985 1.8001C5.0234 1.8001 1.79985 5.02365 1.79985 9.0001C1.79985 12.9765 5.0234 16.2001 8.99985 16.2001ZM6.22336 5.31001C6.1033 5.31001 5.98442 5.33369 5.87352 5.37971C5.7628 5.42565 5.66222 5.49296 5.57752 5.57777C5.49271 5.66247 5.42541 5.76306 5.37946 5.87377C5.33345 5.98466 5.30976 6.10355 5.30976 6.2236C5.30976 6.34366 5.33345 6.46254 5.37946 6.57344C5.42542 6.68418 5.49274 6.78478 5.57758 6.8695L7.70909 9.00021L5.57758 11.1309C5.49277 11.2157 5.42543 11.3165 5.37953 11.4273C5.33363 11.5381 5.31001 11.6569 5.31001 11.7768C5.31001 11.8968 5.33363 12.0155 5.37953 12.1263C5.42543 12.2372 5.49271 12.3378 5.57752 12.4227C5.66233 12.5075 5.76302 12.5747 5.87383 12.6206C5.98465 12.6665 6.10342 12.6902 6.22336 12.6902C6.3433 12.6902 6.46207 12.6665 6.57288 12.6206C6.6837 12.5747 6.78438 12.5075 6.8692 12.4227L8.99996 10.2911L11.1307 12.4226C11.2155 12.5074 11.3162 12.5747 11.427 12.6206C11.5379 12.6665 11.6566 12.6902 11.7766 12.6902C11.8965 12.6902 12.0153 12.6665 12.1261 12.6206C12.2369 12.5747 12.3376 12.5075 12.4224 12.4227C12.5072 12.3378 12.5745 12.2372 12.6204 12.1263C12.6663 12.0155 12.6899 11.8968 12.6899 11.7768C12.6899 11.6569 12.6663 11.5381 12.6204 11.4273C12.5745 11.3165 12.5072 11.2158 12.4224 11.131L10.2908 9.00021L12.4223 6.8695C12.5072 6.78469 12.5745 6.68394 12.6204 6.57313C12.6663 6.46231 12.6899 6.34354 12.6899 6.2236C12.6899 6.10366 12.6663 5.98489 12.6204 5.87408C12.5745 5.76327 12.5072 5.66258 12.4224 5.57777C12.3376 5.49295 12.2369 5.42568 12.1261 5.37978C12.0153 5.33388 11.8965 5.31025 11.7766 5.31025C11.6566 5.31025 11.5379 5.33388 11.427 5.37978C11.3162 5.42568 11.2155 5.49295 11.1307 5.57777L8.99996 7.70934L6.8696 5.57817C6.78488 5.49333 6.68394 5.42566 6.57319 5.37971C6.4623 5.33369 6.34342 5.31001 6.22336 5.31001Z" fill="#333333"/>
</svg>
