<svg width="24" height="24" viewBox="0 0 24 24" fill="none" xmlns="http://www.w3.org/2000/svg">
<path d="M19.7968 17.6675C19.3094 17.2006 18.835 16.7203 18.3742 16.2272C17.987 15.8338 17.7539 15.5476 17.7539 15.5476L14.84 14.1562C16.0066 12.8332 16.6505 11.1299 16.6508 9.36601C16.6508 5.35005 13.3831 2.0813 9.3661 2.0813C5.3491 2.0813 2.08139 5.35005 2.08139 9.36601C2.08139 13.382 5.3491 16.6507 9.3661 16.6507C11.2008 16.6507 12.8732 15.9639 14.1563 14.841L15.5477 17.7549C15.5477 17.7549 15.8339 17.988 16.2273 18.3751C16.63 18.7529 17.1597 19.2638 17.6675 19.7977L19.0808 21.2463L19.7093 21.9186L21.9166 19.7113L21.2443 19.0828C20.8499 18.6956 20.3233 18.1815 19.7968 17.6675ZM9.3661 14.5694C6.49697 14.5694 4.16274 12.2351 4.16274 9.36601C4.16274 6.49687 6.49697 4.16264 9.3661 4.16264C12.2352 4.16264 14.5695 6.49687 14.5695 9.36601C14.5695 12.2351 12.2352 14.5694 9.3661 14.5694Z" fill="#808080"/>
</svg>
