<svg width="26" height="26" viewBox="0 0 26 26" fill="none" xmlns="http://www.w3.org/2000/svg">
<path d="M21.9371 3.39624C21.8303 3.2899 21.6953 3.21627 21.548 3.18402C21.4008 3.15176 21.2474 3.16222 21.1059 3.21416L3.68919 9.54749C3.53898 9.60446 3.40967 9.70578 3.31841 9.838C3.22716 9.97021 3.17828 10.1271 3.17828 10.2877C3.17828 10.4483 3.22716 10.6052 3.31841 10.7374C3.40967 10.8696 3.53898 10.9709 3.68919 11.0279L11.2892 14.0679L14.3292 21.6679C14.3863 21.8115 14.4842 21.9353 14.6108 22.0239C14.7374 22.1125 14.8872 22.1621 15.0417 22.1667C15.2017 22.1634 15.3569 22.1117 15.4869 22.0184C15.6169 21.9251 15.7156 21.7947 15.77 21.6442L22.1034 4.22749C22.1573 4.08743 22.1703 3.93491 22.1409 3.78774C22.1114 3.64056 22.0408 3.50479 21.9371 3.39624ZM15.0417 19.1583L12.8329 13.6167L16.0669 10.3827C16.3751 10.0745 16.3751 9.57469 16.0669 9.26645V9.26645C15.7587 8.9582 15.2589 8.9582 14.9506 9.26645L11.685 12.5321L6.17502 10.2917L20.0529 5.28041L15.0417 19.1583Z" fill="white"/>
</svg>
