<svg width="112" height="112" viewBox="0 0 112 112" fill="none" xmlns="http://www.w3.org/2000/svg">
<path fill-rule="evenodd" clip-rule="evenodd" d="M58.6667 21.3334H33.9333C26.9745 21.3334 21.3333 26.9746 21.3333 33.9334V78.7334C21.3333 85.6922 26.9745 91.3334 33.9333 91.3334H78.7333C85.692 91.3334 91.3333 85.6922 91.3333 78.7334V54.0001H84.3333V78.7334C84.3333 81.8262 81.826 84.3334 78.7333 84.3334H33.9333C30.8405 84.3334 28.3333 81.8262 28.3333 78.7334V33.9334C28.3333 30.8406 30.8405 28.3334 33.9333 28.3334H58.6667V21.3334Z" fill="#333333"/>
<mask id="path-2-inside-1" fill="white">
<path fill-rule="evenodd" clip-rule="evenodd" d="M84.2747 24.4867L61.8359 46.9256C61.5916 47.1699 61.4019 47.4481 61.2667 47.745C61.0943 48.1072 60.9977 48.5126 60.9977 48.9405V51.7246H63.782C64.2407 51.7246 64.6735 51.6136 65.0551 51.4171C65.3224 51.2852 65.5731 51.1079 65.7957 50.8854L88.2345 28.4465C89.328 27.3531 89.328 25.5802 88.2345 24.4867C87.1411 23.3933 85.3682 23.3933 84.2747 24.4867ZM56.8861 41.9758C55.2991 43.5629 54.3702 45.5588 54.0994 47.6244C54.0341 47.9663 54 48.3192 54 48.6801V56.4569C54 57.7456 55.0447 58.7903 56.3333 58.7903H64.1102C64.7821 58.7903 65.4264 58.6719 66.0233 58.4549C67.7538 58.0566 69.3972 57.1834 70.7454 55.8351L93.1843 33.3963C97.0114 29.5691 97.0114 23.3641 93.1843 19.537C89.3571 15.7098 83.1521 15.7098 79.325 19.537L56.8861 41.9758Z"/>
</mask>
<path fill-rule="evenodd" clip-rule="evenodd" d="M84.2747 24.4867L61.8359 46.9256C61.5916 47.1699 61.4019 47.4481 61.2667 47.745C61.0943 48.1072 60.9977 48.5126 60.9977 48.9405V51.7246H63.782C64.2407 51.7246 64.6735 51.6136 65.0551 51.4171C65.3224 51.2852 65.5731 51.1079 65.7957 50.8854L88.2345 28.4465C89.328 27.3531 89.328 25.5802 88.2345 24.4867C87.1411 23.3933 85.3682 23.3933 84.2747 24.4867ZM56.8861 41.9758C55.2991 43.5629 54.3702 45.5588 54.0994 47.6244C54.0341 47.9663 54 48.3192 54 48.6801V56.4569C54 57.7456 55.0447 58.7903 56.3333 58.7903H64.1102C64.7821 58.7903 65.4264 58.6719 66.0233 58.4549C67.7538 58.0566 69.3972 57.1834 70.7454 55.8351L93.1843 33.3963C97.0114 29.5691 97.0114 23.3641 93.1843 19.537C89.3571 15.7098 83.1521 15.7098 79.325 19.537L56.8861 41.9758Z" fill="#C4C4C4"/>
<path d="M61.8359 46.9256L65.1357 50.2254L65.1357 50.2254L61.8359 46.9256ZM84.2747 24.4867L80.9749 21.1869L80.9749 21.1869L84.2747 24.4867ZM61.2667 47.745L65.4801 49.7513L65.4975 49.7148L65.5143 49.678L61.2667 47.745ZM60.9977 51.7246H56.3311V56.3913H60.9977V51.7246ZM65.0551 51.4171L62.9897 47.2324L62.9538 47.2501L62.9182 47.2684L65.0551 51.4171ZM65.7957 50.8854L69.0955 54.1852L69.0955 54.1852L65.7957 50.8854ZM88.2345 28.4465L91.5344 31.7464L91.5344 31.7464L88.2345 28.4465ZM88.2345 24.4867L84.9347 27.7866L84.9347 27.7866L88.2345 24.4867ZM54.0994 47.6244L58.6834 48.4989L58.7088 48.3656L58.7264 48.2311L54.0994 47.6244ZM56.8861 41.9758L60.186 45.2757L60.186 45.2757L56.8861 41.9758ZM66.0233 58.4549L64.9766 53.9072L64.6979 53.9713L64.4291 54.069L66.0233 58.4549ZM70.7454 55.8351L74.0452 59.135L74.0452 59.135L70.7454 55.8351ZM93.1843 33.3963L89.8844 30.0964L89.8844 30.0964L93.1843 33.3963ZM93.1843 19.537L89.8844 22.8368L93.1843 19.537ZM79.325 19.537L76.0251 16.2371L76.0251 16.2371L79.325 19.537ZM65.1357 50.2254L87.5746 27.7866L80.9749 21.1869L58.536 43.6258L65.1357 50.2254ZM65.5143 49.678C65.4214 49.882 65.2926 50.0686 65.1357 50.2254L58.536 43.6257C57.8906 44.2712 57.3823 45.0141 57.0192 45.8121L65.5143 49.678ZM65.6644 48.9405C65.6644 49.2213 65.5997 49.5001 65.4801 49.7513L57.0533 45.7388C56.5888 46.7144 56.3311 47.8039 56.3311 48.9405H65.6644ZM65.6644 51.7246V48.9405H56.3311V51.7246H65.6644ZM63.782 47.0579H60.9977V56.3913H63.782V47.0579ZM62.9182 47.2684C63.1821 47.1325 63.4801 47.0579 63.782 47.0579V56.3913C65.0013 56.3913 66.165 56.0947 67.1919 55.5658L62.9182 47.2684ZM62.4958 47.5855C62.6384 47.443 62.806 47.3231 62.9897 47.2324L67.1205 55.6019C67.8389 55.2473 68.5079 54.7728 69.0955 54.1852L62.4958 47.5855ZM84.9347 25.1467L62.4958 47.5855L69.0955 54.1852L91.5344 31.7464L84.9347 25.1467ZM84.9347 27.7866C84.2057 27.0576 84.2057 25.8757 84.9347 25.1467L91.5344 31.7464C94.4502 28.8305 94.4503 24.1028 91.5344 21.1869L84.9347 27.7866ZM87.5746 27.7866C86.8456 28.5155 85.6637 28.5155 84.9347 27.7866L91.5344 21.1869C88.6184 18.271 83.8908 18.271 80.9749 21.1869L87.5746 27.7866ZM58.7264 48.2311C58.8683 47.149 59.3511 46.1106 60.186 45.2757L53.5863 38.676C51.2471 41.0151 49.8721 43.9685 49.4723 47.0178L58.7264 48.2311ZM58.6667 48.6801C58.6667 48.6142 58.6728 48.554 58.6834 48.4989L49.5154 46.75C49.3954 47.3786 49.3333 48.0243 49.3333 48.6801H58.6667ZM58.6667 56.4569V48.6801H49.3333V56.4569H58.6667ZM56.3333 54.1236C57.622 54.1236 58.6667 55.1683 58.6667 56.4569H49.3333C49.3333 60.3229 52.4673 63.4569 56.3333 63.4569V54.1236ZM64.1102 54.1236H56.3333V63.4569H64.1102V54.1236ZM64.4291 54.069C64.3357 54.103 64.2305 54.1236 64.1102 54.1236V63.4569C65.3336 63.4569 66.517 63.2409 67.6175 62.8409L64.4291 54.069ZM67.4456 52.5353C66.7343 53.2466 65.8788 53.6995 64.9766 53.9072L67.0701 63.0027C69.6289 62.4137 72.0601 61.1201 74.0452 59.135L67.4456 52.5353ZM89.8844 30.0964L67.4456 52.5353L74.0452 59.135L96.4841 36.6961L89.8844 30.0964ZM89.8844 22.8368C91.8891 24.8415 91.8891 28.0918 89.8844 30.0964L96.4841 36.6961C102.134 31.0465 102.134 21.8867 96.4841 16.2371L89.8844 22.8368ZM82.6248 22.8368C84.6295 20.8321 87.8797 20.8321 89.8844 22.8368L96.4841 16.2371C90.8345 10.5876 81.6747 10.5876 76.0251 16.2371L82.6248 22.8368ZM60.186 45.2757L82.6248 22.8368L76.0251 16.2371L53.5863 38.676L60.186 45.2757Z" fill="#333333" mask="url(#path-2-inside-1)"/>
</svg>
