<svg width="112" height="112" viewBox="0 0 112 112" fill="none" xmlns="http://www.w3.org/2000/svg">
<path d="M31.5001 18.3633C28.0965 18.3633 24.8323 19.7154 22.4255 22.1221C20.0188 24.5289 18.6667 27.7931 18.6667 31.1967V75.8333C18.6667 76.7616 19.0355 77.6518 19.6919 78.3082C20.3483 78.9646 21.2385 79.3333 22.1667 79.3333C23.095 79.3333 23.9852 78.9646 24.6416 78.3082C25.298 77.6518 25.6667 76.7616 25.6667 75.8333V31.1967C25.6667 27.9767 28.2801 25.3633 31.5001 25.3633H75.8334C79.0534 25.3633 81.6667 27.9767 81.6667 31.1967V52.6307C83.8741 51.6553 86.2867 51.2307 88.6667 51.3567V31.1967C88.6667 27.7931 87.3147 24.5289 84.908 22.1221C82.5012 19.7154 79.237 18.3633 75.8334 18.3633H31.5001V18.3633Z" fill="#333333"/>
<path d="M94.7611 58.5992L94.1591 58.1092L94.1451 58.0952C92.113 56.5799 89.6037 55.8461 87.0754 56.0277C84.547 56.2093 82.1684 57.2943 80.3738 59.0845L62.6264 77.1445C61.5251 78.2645 60.7224 79.6132 60.2791 81.0879L57.5398 90.1972C55.0592 90.5872 52.5321 90.5777 50.0545 90.1692C50.028 90.1651 50.003 90.155 49.9811 90.1396C49.9593 90.1242 49.9414 90.1039 49.9287 90.0804C49.916 90.0569 49.909 90.0307 49.9081 90.004C49.9073 89.9773 49.9126 89.9508 49.9238 89.9265L50.0825 89.5905L50.1011 89.5579C50.4045 88.9139 50.9411 87.7752 51.1138 86.6039C51.2071 85.9505 51.2398 85.0452 50.8851 84.0839C50.5194 83.0867 49.8248 82.2439 48.9158 81.6945C47.4038 80.7659 45.5231 80.6959 43.9085 80.7892C42.2916 80.9072 40.6844 81.1317 39.0971 81.4612C36.9411 81.8812 34.8925 82.8425 32.8485 83.8039C30.1605 85.0732 27.4818 86.3332 24.5838 86.3332C23.5431 86.3332 22.5445 86.1652 21.6065 85.8479C21.0325 85.6612 20.4025 86.1232 20.5471 86.7112C20.8131 87.7799 21.3031 89.2219 22.3765 90.3279C23.0273 91.0085 23.8557 91.4934 24.7678 91.7276C25.68 91.9619 26.6395 91.9361 27.5378 91.6532C34.3231 89.6605 38.8311 88.5732 41.7618 88.0879C42.3778 87.9852 42.8351 88.6059 42.6485 89.2032C42.3545 90.1365 41.9345 91.8959 42.8071 93.6832C43.7498 95.6199 45.6071 96.4319 47.2124 96.7632C52.5464 97.8599 57.1524 97.7152 62.7804 96.2405C63.0231 96.1985 63.2704 96.1425 63.5131 96.0632L64.0591 95.8859C64.8871 95.6458 65.7101 95.389 66.5278 95.1159C66.6549 95.0731 66.7795 95.0232 66.9011 94.9665L73.3738 92.8712C74.9511 92.3625 76.3745 91.4899 77.5131 90.3279L95.2231 72.3145C98.8911 68.5765 98.8771 62.8179 95.3071 59.1265L94.7611 58.5992V58.5992ZM67.3444 83.0105C67.466 82.6132 67.6822 82.2512 67.9744 81.9559L85.7218 63.8959C86.2502 63.3697 86.958 63.0628 87.7033 63.0369C88.4485 63.0109 89.176 63.2677 89.7398 63.7559C90.7618 64.6659 90.9064 66.1172 90.1411 67.1812L89.8611 67.5172L72.1651 85.5165C71.8497 85.8343 71.4623 86.0712 71.0358 86.2072L65.8838 87.8732L67.3444 83.0105V83.0105Z" fill="#333333"/>
</svg>
