<svg width="21" height="21" viewBox="0 0 21 21" fill="none" xmlns="http://www.w3.org/2000/svg">
<path d="M14.0802 14.0787L14.0802 14.0787C13.9566 14.2025 13.8099 14.3007 13.6483 14.3677C13.4868 14.4347 13.3136 14.4692 13.1387 14.4692C12.9639 14.4692 12.7907 14.4347 12.6291 14.3677C12.4678 14.3008 12.3211 14.2027 12.1977 14.0791L14.0802 14.0787ZM14.0802 14.0787L14.0844 14.0744C14.5877 13.5578 14.5942 12.7114 14.0798 12.197L12.025 10.1422L14.0798 8.08739L13.7262 7.73384L14.0798 8.08739C14.2034 7.96381 14.3014 7.8171 14.3683 7.65563L13.9063 7.46429L14.3683 7.65563C14.4352 7.49416 14.4696 7.32111 14.4696 7.14634C14.4696 6.97157 14.4352 6.79851 14.3683 6.63704L13.9063 6.82839L14.3683 6.63704C14.3014 6.47558 14.2034 6.32887 14.0798 6.20529L13.7262 6.55884L14.0798 6.20528C13.9562 6.08171 13.8095 5.98368 13.648 5.91679C13.4866 5.84991 13.3135 5.81549 13.1387 5.81549C12.964 5.81549 12.7909 5.84991 12.6294 5.91679C12.468 5.98367 12.3213 6.0817 12.1977 6.20528L10.1429 8.26007L8.08812 6.20528C7.83854 5.9557 7.50003 5.81549 7.14707 5.81549C6.79411 5.81549 6.4556 5.9557 6.20602 6.20528C5.95643 6.45487 5.81622 6.79338 5.81622 7.14634C5.81622 7.4993 5.95643 7.83781 6.20602 8.08739L8.2608 10.1422L6.20602 12.197C6.08244 12.3205 5.98441 12.4672 5.91752 12.6287C5.85064 12.7902 5.81622 12.9632 5.81622 13.138C5.81622 13.491 5.95643 13.8295 6.20602 14.0791C6.4556 14.3286 6.79411 14.4689 7.14707 14.4689C7.50003 14.4689 7.83854 14.3286 8.08812 14.0791L7.73457 13.7255L8.08812 14.0791L10.1429 12.0243L12.1973 14.0787L14.0802 14.0787ZM2.30762 5.80713C2.30762 3.87413 3.87462 2.30713 5.80762 2.30713H14.4776C16.4106 2.30713 17.9776 3.87413 17.9776 5.80713V14.4771C17.9776 16.4101 16.4106 17.9771 14.4776 17.9771H5.80761C3.87462 17.9771 2.30762 16.4101 2.30762 14.4771V5.80713Z" fill="#C0C0C0" stroke="#C0C0C0"/>
</svg>
