<svg width="20" height="20" viewBox="0 0 20 20" fill="none" xmlns="http://www.w3.org/2000/svg">
<path d="M3.3335 5.83333C3.3335 5.61232 3.42129 5.40036 3.57757 5.24408C3.73385 5.0878 3.94582 5 4.16683 5H15.8335C16.0545 5 16.2665 5.0878 16.4228 5.24408C16.579 5.40036 16.6668 5.61232 16.6668 5.83333C16.6668 6.05435 16.579 6.26631 16.4228 6.42259C16.2665 6.57887 16.0545 6.66667 15.8335 6.66667H4.16683C3.94582 6.66667 3.73385 6.57887 3.57757 6.42259C3.42129 6.26631 3.3335 6.05435 3.3335 5.83333ZM3.3335 10C3.3335 9.77899 3.42129 9.56702 3.57757 9.41074C3.73385 9.25446 3.94582 9.16667 4.16683 9.16667H12.5002C12.7212 9.16667 12.9331 9.25446 13.0894 9.41074C13.2457 9.56702 13.3335 9.77899 13.3335 10C13.3335 10.221 13.2457 10.433 13.0894 10.5893C12.9331 10.7455 12.7212 10.8333 12.5002 10.8333H4.16683C3.94582 10.8333 3.73385 10.7455 3.57757 10.5893C3.42129 10.433 3.3335 10.221 3.3335 10ZM3.3335 14.1667C3.3335 13.9457 3.42129 13.7337 3.57757 13.5774C3.73385 13.4211 3.94582 13.3333 4.16683 13.3333H9.16683C9.38784 13.3333 9.5998 13.4211 9.75608 13.5774C9.91237 13.7337 10.0002 13.9457 10.0002 14.1667C10.0002 14.3877 9.91237 14.5996 9.75608 14.7559C9.5998 14.9122 9.38784 15 9.16683 15H4.16683C3.94582 15 3.73385 14.9122 3.57757 14.7559C3.42129 14.5996 3.3335 14.3877 3.3335 14.1667Z" fill="#C0C0C0"/>
<path d="M15 15.8333L13.5 13.8333H16.5L15 15.8333Z" fill="#C0C0C0" stroke="#C0C0C0"/>
</svg>
